<svg width="70" height="70" viewBox="0 0 70 70" fill="none" xmlns="http://www.w3.org/2000/svg">
<path d="M43.75 3.28125H2.1875V44.8438H26.25V67.8125H67.8125V26.25H43.75V3.28125ZM20.2761 13.125L13.4112 32.7168H18.0469L19.1633 29.5312H26.25V40.4688H6.5625V7.65625H39.375V26.25H30.2602L25.6621 13.125H20.2761ZM25.2413 25.1562H20.6962L22.9688 18.6706L25.2413 25.1562ZM63.4375 30.625V63.4375H30.625V30.625H63.4375Z" fill="#6877FF"/>
<path d="M43.3989 50.3781C43.8174 51.0502 44.2781 51.695 44.7783 52.3086C43.1923 53.1639 41.3912 53.5923 39.375 53.5938V57.9688C42.6755 57.9688 45.6244 57.0927 48.125 55.3952C50.6256 57.0927 53.5745 57.9688 56.875 57.9688V53.5938C54.863 53.5938 53.0619 53.165 51.4719 52.3076C51.972 51.6943 52.4327 51.0499 52.8511 50.3781C54.112 48.3282 55.0393 46.0909 55.5983 43.75H57.9688V39.375H50.3125V36.0938H45.9375V39.375H38.2812V43.75H40.6517C41.2107 46.0909 42.138 48.3282 43.3989 50.3781ZM51.0686 43.75C50.6159 45.2641 49.9679 46.7128 49.1408 48.0594C48.8318 48.5559 48.4926 49.0329 48.125 49.4878C47.7842 49.0665 47.4678 48.6259 47.1775 48.1683C46.3168 46.7918 45.6453 45.3057 45.1809 43.75H51.0686Z" fill="#6877FF"/>
</svg>
